<svg width="41" height="40" viewBox="0 0 41 40" fill="none" xmlns="http://www.w3.org/2000/svg">
<path d="M20.6172 12.4502V19.8238" stroke="white" stroke-width="1.5" stroke-linecap="round" stroke-linejoin="round"/>
<path d="M27.0486 23.5105L20.6172 19.8237" stroke="white" stroke-width="1.5" stroke-linecap="round" stroke-linejoin="round"/>
<path d="M29.3066 15.4789H35.4953V9.33423" stroke="white" stroke-width="1.5" stroke-linecap="round" stroke-linejoin="round"/>
<path d="M30.2442 29.3826C28.3401 31.2731 25.9141 32.5606 23.2731 33.0822C20.632 33.6038 17.8945 33.3361 15.4067 32.3129C12.9189 31.2898 10.7925 29.5571 9.29649 27.3341C7.80046 25.111 7.00195 22.4974 7.00195 19.8237C7.00195 17.1501 7.80046 14.5365 9.29649 12.3134C10.7925 10.0904 12.9189 8.35772 15.4067 7.33456C17.8945 6.3114 20.632 6.04369 23.2731 6.5653C25.9141 7.0869 28.3401 8.37438 30.2442 10.2649L35.4954 15.4788" stroke="white" stroke-width="1.5" stroke-linecap="round" stroke-linejoin="round"/>
</svg>
