<svg width="15" height="15" viewBox="0 0 15 15" fill="none" xmlns="http://www.w3.org/2000/svg">
<path d="M7.53711 3.65625C5.53711 3.65625 3.94336 5.28125 3.94336 7.25C3.94336 9.25 5.53711 10.8438 7.53711 10.8438C9.50586 10.8438 11.1309 9.25 11.1309 7.25C11.1309 5.28125 9.50586 3.65625 7.53711 3.65625ZM7.53711 9.59375C6.25586 9.59375 5.19336 8.5625 5.19336 7.25C5.19336 5.96875 6.22461 4.9375 7.53711 4.9375C8.81836 4.9375 9.84961 5.96875 9.84961 7.25C9.84961 8.5625 8.81836 9.59375 7.53711 9.59375ZM12.0996 3.53125C12.0996 3.0625 11.7246 2.6875 11.2559 2.6875C10.7871 2.6875 10.4121 3.0625 10.4121 3.53125C10.4121 4 10.7871 4.375 11.2559 4.375C11.7246 4.375 12.0996 4 12.0996 3.53125ZM14.4746 4.375C14.4121 3.25 14.1621 2.25 13.3496 1.4375C12.5371 0.625 11.5371 0.375 10.4121 0.3125C9.25586 0.25 5.78711 0.25 4.63086 0.3125C3.50586 0.375 2.53711 0.625 1.69336 1.4375C0.880859 2.25 0.630859 3.25 0.568359 4.375C0.505859 5.53125 0.505859 9 0.568359 10.1562C0.630859 11.2812 0.880859 12.25 1.69336 13.0938C2.53711 13.9062 3.50586 14.1562 4.63086 14.2188C5.78711 14.2812 9.25586 14.2812 10.4121 14.2188C11.5371 14.1562 12.5371 13.9062 13.3496 13.0938C14.1621 12.25 14.4121 11.2812 14.4746 10.1562C14.5371 9 14.5371 5.53125 14.4746 4.375ZM12.9746 11.375C12.7559 12 12.2559 12.4688 11.6621 12.7188C10.7246 13.0938 8.53711 13 7.53711 13C6.50586 13 4.31836 13.0938 3.41211 12.7188C2.78711 12.4688 2.31836 12 2.06836 11.375C1.69336 10.4688 1.78711 8.28125 1.78711 7.25C1.78711 6.25 1.69336 4.0625 2.06836 3.125C2.31836 2.53125 2.78711 2.0625 3.41211 1.8125C4.31836 1.4375 6.50586 1.53125 7.53711 1.53125C8.53711 1.53125 10.7246 1.4375 11.6621 1.8125C12.2559 2.03125 12.7246 2.53125 12.9746 3.125C13.3496 4.0625 13.2559 6.25 13.2559 7.25C13.2559 8.28125 13.3496 10.4688 12.9746 11.375Z" fill="#1E1E1E"/>
</svg>
