<svg width="17" height="14" viewBox="0 0 17 14" fill="none" xmlns="http://www.w3.org/2000/svg">
<path d="M15.0938 4C15.7188 3.53125 16.2812 2.96875 16.7188 2.3125C16.1562 2.5625 15.5 2.75 14.8438 2.8125C15.5312 2.40625 16.0312 1.78125 16.2812 1C15.6562 1.375 14.9375 1.65625 14.2188 1.8125C13.5938 1.15625 12.75 0.78125 11.8125 0.78125C10 0.78125 8.53125 2.25 8.53125 4.0625C8.53125 4.3125 8.5625 4.5625 8.625 4.8125C5.90625 4.65625 3.46875 3.34375 1.84375 1.375C1.5625 1.84375 1.40625 2.40625 1.40625 3.03125C1.40625 4.15625 1.96875 5.15625 2.875 5.75C2.34375 5.71875 1.8125 5.59375 1.375 5.34375V5.375C1.375 6.96875 2.5 8.28125 4 8.59375C3.75 8.65625 3.4375 8.71875 3.15625 8.71875C2.9375 8.71875 2.75 8.6875 2.53125 8.65625C2.9375 9.96875 4.15625 10.9062 5.59375 10.9375C4.46875 11.8125 3.0625 12.3438 1.53125 12.3438C1.25 12.3438 1 12.3125 0.75 12.2812C2.1875 13.2188 3.90625 13.75 5.78125 13.75C11.8125 13.75 15.0938 8.78125 15.0938 4.4375C15.0938 4.28125 15.0938 4.15625 15.0938 4Z" fill="#1E1E1E"/>
</svg>
