<svg width="18" height="13" viewBox="0 0 18 13" fill="none" xmlns="http://www.w3.org/2000/svg">
<path d="M17.4941 2.15625C17.3066 1.40625 16.7129 0.8125 15.9941 0.625C14.6504 0.25 9.33789 0.25 9.33789 0.25C9.33789 0.25 3.99414 0.25 2.65039 0.625C1.93164 0.8125 1.33789 1.40625 1.15039 2.15625C0.775391 3.46875 0.775391 6.28125 0.775391 6.28125C0.775391 6.28125 0.775391 9.0625 1.15039 10.4062C1.33789 11.1562 1.93164 11.7188 2.65039 11.9062C3.99414 12.25 9.33789 12.25 9.33789 12.25C9.33789 12.25 14.6504 12.25 15.9941 11.9062C16.7129 11.7188 17.3066 11.1562 17.4941 10.4062C17.8691 9.0625 17.8691 6.28125 17.8691 6.28125C17.8691 6.28125 17.8691 3.46875 17.4941 2.15625ZM7.58789 8.8125V3.75L12.0254 6.28125L7.58789 8.8125Z" fill="#FF9F0D"/>
</svg>
